#!OML:ASF E:\Mandelcareful walks\Project 1\Capture day 1\Session 1\Subject1.ASF
:FULLY-SPECIFIED
:DEGREES
667
root 1.03885 16.3879 2.75012 -427.066 96.7681 -433.903
lowerback 22.9912 -0.134184 -1.13889
upperback 5.62894 0.025247 0.532383
thorax -6.63758 0.203559 1.20202
lowerneck -27.2342 3.29419 -1.78801
upperneck 28.7701 7.60891 -4.67987
head 14.6713 2.43538 -0.051827
rclavicle -2.78299e-015 -1.59028e-014
rhumerus -19.6709 2.81553 -81.4479
rradius 42.4444
rwrist -15.9098
rhand -14.3443 -28.2355
rfingers 7.12502
rthumb 11.7971 -57.8833
lclavicle -2.78299e-015 -1.59028e-014
lhumerus -21.8165 -3.89853 87.6874
lradius 33.1035
lwrist 13.8877
lhand -22.4675 -12.6428
lfingers 7.12502
lthumb 3.95732 17.3002
rfemur -26.1349 -6.91178 13.351
rtibia 44.1965
rfoot -22.5768 -7.35765
rtoes 4.77962
lfemur -16.6394 2.89312 -14.4036
ltibia 34.4394
lfoot -19.6059 5.00657
ltoes -11.0046
668
root 1.08722 16.4066 2.81208 -422.546 97.1685 -429.107
lowerback 22.6913 -0.343504 -1.16333
upperback 5.5722 -0.241993 0.679312
thorax -6.53624 0.0729731 1.44874
lowerneck -26.7302 3.34531 -1.83322
upperneck 28.8692 7.74524 -4.76788
head 14.6168 2.49091 -0.0588115
rclavicle 1.78906e-014 4.13472e-014
rhumerus -19.9886 2.79623 -81.2283
rradius 41.8205
rwrist -15.7482
rhand -14.3522 -27.2389
rfingers 7.12502
rthumb 11.7895 -56.8871
lclavicle 1.78906e-014 4.13472e-014
lhumerus -22.5096 -3.47491 87.7316
lradius 33.0287
lwrist 13.801
lhand -22.2483 -12.4632
lfingers 7.12502
lthumb 4.16897 17.4758
rfemur -25.2839 -7.18491 13.3694
rtibia 43.8931
rfoot -22.8029 -7.63613
rtoes 4.85777
lfemur -16.0012 2.3778 -14.3175
ltibia 33.8601
lfoot -19.251 5.00289
ltoes -11.2392
669
root 1.1233 16.4229 2.85908 -425.61 97.1094 -432.162
lowerback 22.1913 -0.189945 -1.0491
upperback 5.66692 -0.019913 0.641819
thorax -6.1832 0.174005 1.27963
lowerneck -26.608 3.47607 -1.59139
upperneck 28.7918 7.92989 -5.07095
head 14.5909 2.55928 -0.186175
rclavicle -3.97569e-016 -7.95139e-015
rhumerus -19.8569 2.56642 -81.0927
rradius 41.473
rwrist -15.7335
rhand -14.3114 -27.2641
rfingers 7.12502
rthumb 11.8288 -56.91
lclavicle -3.97569e-016 -7.95139e-015
lhumerus -22.6359 -3.2381 87.6797
lradius 32.8525
lwrist 13.7065
lhand -22.1737 -12.4159
lfingers 7.12502
lthumb 4.24102 17.5216
rfemur -25.0456 -6.83264 13.43
rtibia 43.5646
rfoot -22.6921 -7.6009
rtoes 4.79591
lfemur -15.5043 2.54864 -14.2711
ltibia 33.3338
lfoot -18.7869 5.35785
ltoes -11.3637
670
root 1.11861 16.4408 2.93004 -420.035 97.5707 -426.95
lowerback 21.896 -0.373355 -1.0293
upperback 5.30754 -0.2721 0.737792
thorax -6.41366 0.0442382 1.44014
lowerneck -25.9729 3.48807 -1.3534
upperneck 28.7256 7.91261 -5.30582
head 14.4526 2.5691 -0.333409
rclavicle 1.59028e-014 3.18055e-015
rhumerus -20.1031 2.42662 -80.949
rradius 41.223
rwrist -15.7522
rhand -14.4376 -27.6117
rfingers 7.12502
rthumb 11.7071 -57.2646
lclavicle 1.59028e-014 3.18055e-015
lhumerus -23.2277 -2.75207 87.6673
lradius 32.7519
lwrist 13.2722
lhand -22.013 -12.8398
lfingers 7.12502
lthumb 4.39617 17.0945
rfemur -25.1751 -7.25857 13.5731
rtibia 43.2195
rfoot -22.6028 -7.93884
rtoes 5.10209
lfemur -15.9464 2.17557 -14.189
ltibia 32.8704
lfoot -17.7554 5.25985
ltoes -12.0108
671
root 1.16218 16.4555 2.97683 -421.797 97.4191 -428.378
lowerback 21.708 -0.265116 -0.797396
upperback 5.44765 -0.0725139 0.754706
thorax -6.17142 0.138236 1.27098
lowerneck -25.8722 3.44409 -1.27839
upperneck 28.701 7.86314 -5.44088
head 14.4314 2.54211 -0.411463
rclavicle -1.27222e-014 7.95139e-016
rhumerus -20.1101 2.08081 -80.7604
rradius 40.9091
rwrist -15.6868
rhand -14.436 -27.0955
rfingers 7.12502
rthumb 11.7087 -56.7483
lclavicle -1.27222e-014 7.95139e-016
lhumerus -23.487 -2.40312 87.6448
lradius 32.6915
lwrist 13.0662
lhand -21.7858 -13.1257
lfingers 7.12502
lthumb 4.61561 16.8041
rfemur -24.4413 -6.92166 13.7546
rtibia 42.7817
rfoot -22.6743 -7.90113
rtoes 5.56092
lfemur -15.1734 2.37531 -13.9442
ltibia 32.5253
lfoot -17.4642 5.29751
ltoes -11.6912
672
root 1.19625 16.4696 3.02561 -421.533 97.4005 -427.917
lowerback 21.368 -0.275247 -0.489489
upperback 5.67592 -0.00880676 0.734106
thorax -5.75062 0.168183 1.05418
lowerneck -26.1547 3.38586 -1.32933
upperneck 28.7211 7.77991 -5.36707
head 14.4906 2.50148 -0.385885
rclavicle 0 -2.94201e-014
rhumerus -19.8286 1.70936 -80.6512
rradius 40.605
rwrist -15.6492
rhand -14.3371 -26.5256
rfingers 7.12502
rthumb 11.8041 -56.1729
lclavicle 0 -2.94201e-014
lhumerus -23.4265 -2.20665 87.5562
lradius 32.5536
lwrist 13.1176
lhand -21.671 -12.8555
lfingers 7.12502
lthumb 4.72643 17.0718
rfemur -23.8369 -6.67969 13.9386
rtibia 42.3325
rfoot -22.7464 -8.0172
rtoes 6.09988
lfemur -14.7133 2.31898 -13.7029
ltibia 32.2967
lfoot -17.1761 5.28066
ltoes -11.2582
673
root 1.22055 16.4824 3.07718 -419.176 97.5304 -425.421
lowerback 21.2265 -0.371036 -0.344521
upperback 5.56766 -0.103809 0.825817
thorax -5.79296 0.118146 1.0944
lowerneck -25.6298 3.36314 -1.38385
upperneck 28.7055 7.7156 -5.24416
head 14.3608 2.50447 -0.347434
rclavicle 4.77083e-015 -2.14687e-014
rhumerus -20.0748 1.77268 -80.4844
rradius 40.4714
rwrist -15.6601
rhand -14.3734 -26.361
rfingers 7.12502
rthumb 11.769 -56.0104
lclavicle 4.77083e-015 -2.14687e-014
lhumerus -23.9974 -1.78494 87.5504
lradius 32.4827
lwrist 13.1293
lhand -21.4996 -12.4155
lfingers 7.12502
lthumb 4.89195 17.5081
rfemur -23.2693 -6.55317 14.1305
rtibia 41.8331
rfoot -22.7382 -8.34976
rtoes 6.38315
lfemur -14.5021 2.02455 -13.4555
ltibia 32.177
lfoot -16.6481 5.25674
ltoes -12.1761
674
root 1.23653 16.4923 3.12778 -416.859 97.7 -423.028
lowerback 21.1782 -0.452428 -0.189058
upperback 5.54127 -0.171163 0.906383
thorax -5.79567 0.0842663 1.10939
lowerneck -25.6548 3.23555 -1.52112
upperneck 28.748 7.54618 -5.10905
head 14.3664 2.4349 -0.303297
rclavicle -4.77083e-015 -1.59028e-015
rhumerus -20.0867 1.78531 -80.2753
rradius 40.441
rwrist -15.7077
rhand -14.3937 -26.6943
rfingers 7.12502
rthumb 11.7495 -56.3448
lclavicle -4.77083e-015 -1.59028e-015
lhumerus -24.2534 -1.47084 87.5733
lradius 32.3858
lwrist 13.1457
lhand -21.2834 -12.0893
lfingers 7.12502
lthumb 5.10069 17.8293
rfemur -22.7981 -6.41863 14.3024
rtibia 41.3369
rfoot -22.7054 -8.70554
rtoes 6.28938
lfemur -14.4918 1.75542 -13.2358
ltibia 32.1885
lfoot -16.0058 5.32773
ltoes -13.871
675
root 1.24147 16.5022 3.17605 -416.452 97.8038 -422.621
lowerback 21.1767 -0.44141 -0.0911692
upperback 5.55274 -0.13452 0.910809
thorax -5.78379 0.101816 1.04882
lowerneck -25.86 3.10466 -1.54988
upperneck 28.7565 7.36673 -5.0931
head 14.407 2.35065 -0.324893
rclavicle 4.77083e-015 1.74931e-014
rhumerus -19.9874 1.78847 -80.1139
rradius 40.5532
rwrist -15.9284
rhand -14.1109 -27.8009
rfingers 7.12502
rthumb 12.0222 -57.4356
lclavicle 4.77083e-015 1.74931e-014
lhumerus -24.338 -1.1207 87.5546
lradius 32.3412
lwrist 13.0471
lhand -21.3093 -12.2194
lfingers 7.12502
lthumb 5.07573 17.6998
rfemur -22.5265 -6.16294 14.3971
rtibia 40.8981
rfoot -22.6408 -8.94069
rtoes 6.18988
lfemur -14.6365 1.72416 -13.1208
ltibia 32.3435
lfoot -15.5638 5.4314
ltoes -14.0282
676
root 1.27682 16.5179 3.20966 -418.401 97.6609 -424.531
lowerback 20.4823 -0.384914 0.220545
upperback 5.90356 0.00184345 0.806129
thorax -5.04831 0.169803 0.721073
lowerneck -26.128 2.99899 -1.63029
upperneck 28.6424 7.18544 -4.9626
head 14.3975 2.27631 -0.292046
rclavicle -1.35174e-014 -1.90833e-014
rhumerus -19.538 1.64966 -80.031
rradius 40.5551
rwrist -16.0694
rhand -13.8719 -28.3537
rfingers 7.12502
rthumb 12.2526 -57.9747
lclavicle -1.35174e-014 -1.90833e-014
lhumerus -24.092 -0.691858 87.4258
lradius 32.3373
lwrist 12.9836
lhand -21.315 -12.3528
lfingers 7.12502
lthumb 5.07024 17.5665
rfemur -22.1647 -5.72454 14.4994
rtibia 40.4849
rfoot -22.6453 -8.93002
rtoes 6.57434
lfemur -14.5525 1.87917 -13.0106
ltibia 32.6213
lfoot -15.4525 5.57224
ltoes -13.1392
